# xmcd CD database file
# Copyright (C) 1993-1998 Ti Kan
#
# Track frame offsets:
#	200
#	11222
#	20920
#	32535
#	42702
#	50717
#	60515
#	70752
#	80512
#	89912
#	99217
#	109587
#	122462
#	132377
#	143190
#	153767
#	165225
#	174427
#	183747
#	196682
#
# Disc length: 2758 seconds
#
# Revision: 2
# Processed by: cddbd v1.4PL0 Copyright (c) Steve Scherf et al.
# Submitted via: Gronk 1.4
#
DISCID=0e0ac414
DTITLE=The Cadillacs - For Collectors Only [CD3]
DYEAR=1900
DGENRE=blues
TTITLE0=I Want You To Know
TTITLE1=Still You Left Me Baby
TTITLE2=It's Spring
TTITLE3=Speedo Is Back
TTITLE4=A Looka Here
TTITLE5=Great Googly Moo
TTITLE6=Copycat
TTITLE7=Oh Oh Lolita
TTITLE8=Please Mr. Johnson
TTITLE9=Cool It, Fool
TTITLE10=Jay Walker
TTITLE11=Frankenstein
TTITLE12=Bad Dan McGoon
TTITLE13=I Want To Be loved
TTITLE14=I'm In Love
TTITLE15=Louise
TTITLE16=Rock 'n' Roll Is Here To Stay
TTITLE17=Corn Wiskey
TTITLE18=Party For Two
TTITLE19=Dum De Dum Dum
EXTD=
EXTT0=
EXTT1=
EXTT2=
EXTT3=
EXTT4=
EXTT5=
EXTT6=
EXTT7=
EXTT8=
EXTT9=
EXTT10=
EXTT11=
EXTT12=
EXTT13=
EXTT14=
EXTT15=
EXTT16=
EXTT17=
EXTT18=
EXTT19=
PLAYORDER=
